<svg xmlns="http://www.w3.org/2000/svg" viewBox="0 0 24 24" fill="none" stroke="currentColor" stroke-width="1.5" stroke-linecap="round" stroke-linejoin="round">
  <path d="M7 4 L7 15 Q5 15 5 17 Q5 19 7 19 L14 19 Q17 19 17 17 Q17 15 15 15 L15 4 Z" fill="var(--icon-red, #e0524b)" />
  <rect x="6" y="3.2" width="10" height="4.6" rx="1" fill="var(--icon-snow, #ffffff)" fill-opacity="0.92" />
  <path d="M7 15 Q5 15 5 17 Q5 19 7 19 L11 19 L11 15 Z" fill="var(--icon-snow, #ffffff)" fill-opacity="0.92" stroke="none" />
  <path d="M7 15 Q5 15 5 17 Q5 19 7 19 L14 19 Q17 19 17 17 Q17 15 15 15 L15 4 L7 4 Z" fill="none" />
</svg>
