<svg xmlns="http://www.w3.org/2000/svg" viewBox="0 0 24 24" fill="none" stroke="currentColor" stroke-width="1.5" stroke-linecap="round" stroke-linejoin="round">
  <path d="M12 6 A7 7 0 1 0 12 20 A7 7 0 1 0 12 6 Z M12 9 A4 4 0 1 1 12 17 A4 4 0 1 1 12 9 Z" fill-rule="evenodd" fill="var(--icon-green, #3fae7a)" stroke="var(--icon-green, #3fae7a)" />
  <circle cx="8" cy="8.5" r="1" fill="var(--icon-red, #e0524b)" stroke="none" />
  <circle cx="16" cy="8.5" r="1" fill="var(--icon-red, #e0524b)" stroke="none" />
  <circle cx="6.2" cy="15" r="1" fill="var(--icon-red, #e0524b)" stroke="none" />
  <circle cx="17.8" cy="15" r="1" fill="var(--icon-red, #e0524b)" stroke="none" />
  <circle cx="12" cy="19.5" r="1" fill="var(--icon-red, #e0524b)" stroke="none" />
  <path d="M12 4.5 Q8.5 1.5 8.5 4 Q8.5 6 12 4.5 Q15.5 1.5 15.5 4 Q15.5 6 12 4.5 Z" fill="var(--icon-red, #e0524b)" stroke="var(--icon-red, #e0524b)" />
  <path d="M11 5 L10 8" stroke="var(--icon-red, #e0524b)" />
  <path d="M13 5 L14 8" stroke="var(--icon-red, #e0524b)" />
</svg>
